<svg xmlns="http://www.w3.org/2000/svg" xmlns:xlink="http://www.w3.org/1999/xlink" width="72" height="86">
  <defs>
    <path id="a" d="M.0101.439h18.9922v19.7807H.0101z"/>
    <path id="c" d="M0 .483h71.376V75H0z"/>
  </defs>
  <g fill="none" fill-rule="evenodd">
    <path fill="#006E63" d="M4.6798 12.825c-.008.007-.013.012-.019.017l.006-.002c.009-.007.006-.003.038-.031-.012.009-.014.01-.025.016M4.7218 12.7888c-.005.006-.012.015-.017.021.085-.078.057-.055.017-.021"/>
    <g transform="translate(0 -.4387)">
      <mask id="b" fill="#fff">
        <use xlink:href="#a"/>
      </mask>
      <path fill="#006E63" d="M.4943 20.2197c1.004-1.025 2.153-1.9 3.418-2.575a.775.775 0 0 0 .305-.296c.839-1.472 1.95-2.749 3.233-3.806.617-.507 1.269-.965 1.962-1.358 2.09-1.185 4.481-1.83 6.949-1.752.023.001.043.006.066.007.812-.495 1.678-.899 2.575-1.215-2.22-.641-4.853-.583-7.51.195-.042.007-.066.008-.11.016-2.749.488-3.707.57-5.216-1.487-.04-.053-.088-.092-.126-.147-1.811-2.577-2.445-5.18-2.668-6.653-.088-.579-.724-.887-1.235-.603l-1.682.934c-.483.267-.6.928-.217 1.327 2.079 2.167 3.816 4.563 5.275 7.288.645 1.187-.336 2.591-.791 3.133.04-.033.068-.057-.017.02-.032.028-.029.024-.038.031l.009-.004c-2.228 2.045-3.702 4.509-4.182 6.945" mask="url(#b)"/>
    </g>
    <path fill="#006E63" d="M4.6388 12.8503l.022-.009c.006-.005.011-.01.019-.016-.018.01-.041.025-.041.025M4.6671 12.8396l-.006.002c-.013.012-.004.005.006-.002M4.7218 12.7888c-.017.015-.025.021-.042.036.011-.006.013-.007.025-.015.005-.006.012-.015.017-.021"/>
    <g transform="translate(0 10.5613)">
      <mask id="d" fill="#fff">
        <use xlink:href="#c"/>
      </mask>
      <path fill="#006E63" d="M62.2697 68.0576c-.162.238-.527.176-.956-.139-12.199-8.914-21.85-20.211-27.589-33.928-.403-.965-.21-2.073.628-2.695 1.049-.778 2.684-.499 3.146.726 5.328 14.105 13.226 26.131 24.594 35.188.306.244.326.626.177.848m8.945 3.055c-.204-.568-.798-1.406-1.516-1.887l-.658-.469c-22.52-17.762-34.498-55.002-35.186-58.47 0 0-1.316-6.228-6.644-8.757-1.008-.479-2.144-.84-3.46-.985-1.634-.18-3.256.041-4.766.575-.759.267-1.492.609-2.181 1.029-.019-.001-.036-.005-.055-.006-2.091-.066-4.118.479-5.887 1.484-.587.333-1.14.721-1.662 1.151-1.134.934-2.11 2.072-2.831 3.387-1.137.582-2.167 1.356-3.061 2.269-1.148 1.174-2.064 2.585-2.626 4.178-.077.22-.133.44-.196.66-.838 2.876-.553 5.731.556 8.175l-.006.004c.013.026.028.051.041.078.141.305.298.602.465.893 15.252 28.96 57.458 47.098 64.448 49.943.22.089.442.17.669.244l.835.269c.858.244 1.686.124 2.498-.365.502-.342.886-.732 1.113-1.234.327-.725.352-1.493.11-2.166" mask="url(#d)"/>
    </g>
  </g>
</svg>