<svg xmlns="http://www.w3.org/2000/svg" xmlns:xlink="http://www.w3.org/1999/xlink" width="74" height="72">
  <defs>
    <path id="a" d="M.8143.3936H27.655V31H.8143z"/>
    <path id="c" d="M.0357.309h29.5966v26.9639H.0357z"/>
  </defs>
  <g fill="none" fill-rule="evenodd">
    <g transform="translate(46 40.6912)">
      <mask id="b" fill="#fff">
        <use xlink:href="#a"/>
      </mask>
      <path fill="#A65A28" d="M26.4753 16.8136c-1.642-5.435-4.124-13.646-13.871-16.013-1.049-.255-2.107-.377-3.16-.407-1.239 2.938-3.173 5.505-5.666 7.502 4.041 1.49 7.437 4.283 9.718 8.034.158.263.207.576.135.873-.072.299-.258.556-.518.715-3.736 2.288-8.034 3.212-12.299 2.689 1.31 2.921 1.864 6.097 1.627 9.285.95.455 1.951.82 2.999 1.074 8.61 2.095 14.972-3.857 19.181-7.796 1.168-1.095 2.177-2.038 3.034-2.604-.418-.832-.771-2.001-1.18-3.352" mask="url(#b)"/>
    </g>
    <path fill="#A65A28" d="M14.1833 44.2069c.449-.814.85-1.612 1.234-2.403-3.394-.8-6.406-1.652-9.222-2.608-.697-.234-1.364-.354-1.986-.354-.074 0-.15.001-.224.005-1.531.071-3.272 1.997-3.804 4.206-.564 2.341.237 4.94 1.749 5.668.488.235 1.048.403 1.712.511 2.186.362 4.411.81 6.811 1.374 1.209-1.945 2.438-4.053 3.73-6.399M43.7648 58.6434c.277-.379.75-.549 1.207-.437 4.052 1.027 8.236.535 11.906-1.38-2.392-3.387-5.888-5.745-9.962-6.694-.455-.104-.8-.476-.876-.939-.074-.462.137-.925.537-1.17 2.718-1.667 4.858-4.02 6.261-6.806.198-.395.39-.8.559-1.215.162-.394.307-.798.441-1.21.014-.042.031-.081.045-.122-3.752-.633-7.602.014-10.962 1.873-2.801 1.553-5.868 2.531-9.21 2.992-2.436 2.106-4.73 4.761-6.944 8.081-.778 1.167-1.5 2.273-2.181 3.34 5.493 2.454 9.629 5.77 12.542 10.049 2.137 3.142 5.241 5.451 8.826 6.594.009-.043.01-.086.018-.13.068-.427.122-.851.158-1.277.038-.447.053-.896.055-1.34.019-3.121-.815-6.194-2.475-8.924-.243-.399-.22-.908.055-1.285"/>
    <g transform="translate(25 -.3088)">
      <mask id="d" fill="#fff">
        <use xlink:href="#c"/>
      </mask>
      <path fill="#A65A28" d="M5.4377 19.4249c2.646-3.414 6.326-5.813 10.576-6.854.612-.15 1.238.228 1.389.849 1.035 4.269.608 8.653-1.193 12.585 3.177-.365 6.356.07 9.304 1.268.721-.772 1.372-1.619 1.931-2.543 4.601-7.602.892-15.498-1.561-20.723-.681-1.452-1.27-2.706-1.549-3.698-.916.145-2.127.129-3.537.109-.567-.009-1.165-.016-1.785-.016-5.551 0-12.932.678-17.618 8.419-.561.924-1.009 1.896-1.359 2.894 2.415 2.079 4.264 4.715 5.402 7.71" mask="url(#d)"/>
    </g>
    <path fill="#A65A28" d="M30.0695 43.8426c.4-.411.804-.813 1.213-1.194.471-.442.944-.873 1.427-1.274 2.926-2.428 6.061-4.142 9.455-5.161 3.628-1.091 6.762-3.356 8.937-6.442-.038-.02-.078-.034-.117-.054-.383-.195-.771-.376-1.165-.541-.412-.172-.831-.322-1.254-.46-2.953-.968-6.122-1.103-9.215-.348-.454.119-.928-.06-1.203-.442-.274-.38-.292-.888-.046-1.286 2.206-3.569 3.01-7.72 2.31-11.814-3.939 1.26-7.238 3.887-9.378 7.496-.238.403-.693.624-1.158.551-.461-.068-.835-.411-.947-.867-.754-3.107-2.332-5.869-4.546-8.059-.316-.311-.642-.618-.984-.906a17.169 17.169 0 0 0-1.015-.789c-.035-.025-.066-.056-.102-.08-1.745 3.399-2.299 7.278-1.556 11.057 1.055 5.367.36 10.952-2.075 16.936-.145.358-.304.717-.461 1.075-.159.364-.294.72-.466 1.085-.465.989-.972 1.988-1.53 2.998-1.171 2.126-2.293 4.061-3.395 5.862-.214.347-.428.7-.64 1.039-.217.346-.433.68-.65 1.014-1.077 1.678-2.145 3.244-3.23 4.723-.489.667-.827 1.344-1.006 2.01-.396 1.485.901 3.737 2.832 4.917 2.052 1.253 4.759 1.275 5.909.05.37-.395.701-.88 1.007-1.484 1.207-2.375 2.557-4.772 4.16-7.39.2-.326.406-.659.615-.993.204-.33.407-.657.621-.993.756-1.191 1.565-2.434 2.442-3.749 1.659-2.485 3.398-4.626 5.211-6.487"/>
  </g>
</svg>