<?xml version="1.0" encoding="UTF-8"?>
<svg width="72px" height="72px" viewBox="0 0 72 72" version="1.1" xmlns="http://www.w3.org/2000/svg" xmlns:xlink="http://www.w3.org/1999/xlink">
    <!-- Generator: Sketch 52.5 (67469) - http://www.bohemiancoding.com/sketch -->
    <title>Group 12</title>
    <desc>Created with Sketch.</desc>
    <defs>
        <polygon id="path-1" points="0 0.309 71.2474089 0.309 71.2474089 72 0 72"></polygon>
    </defs>
    <g id="Page-1" stroke="none" stroke-width="1" fill="none" fill-rule="evenodd">
        <g id="Group-12" transform="translate(0.000000, -1.000000)">
            <path d="M30.3558,37.0728 L30.3558,62.2538 C37.5198,61.7598 44.2348,58.9688 49.6458,54.2268 L31.9188,36.4238 C31.3428,35.8438 30.3558,36.2538 30.3558,37.0728" id="Fill-1" fill="#D2C129"></path>
            <path d="M52.887,7.6187 L35.047,25.5367 C34.512,26.0737 34.892,26.9927 35.649,26.9927 L60.86,26.9927 C60.381,20.0347 57.723,13.1967 52.887,7.6187" id="Fill-3" fill="#D2C129"></path>
            <path d="M24.3607,36.271 L6.5427,54.167 C6.5097,54.2 6.5117,54.255 6.5467,54.286 C11.9267,58.97 18.5857,61.739 25.6867,62.248 C25.7327,62.25 25.7727,62.212 25.7727,62.167 L25.7727,36.859 C25.7727,36.119 24.8817,35.748 24.3607,36.271" id="Fill-5" fill="#D2C129"></path>
            <path d="M60.8607,31.5972 L35.9447,31.5972 C35.0787,31.5972 34.6447,32.6492 35.2567,33.2632 L52.8877,50.9722 C57.7227,45.3922 60.3807,38.5572 60.8607,31.5972" id="Fill-7" fill="#D2C129"></path>
            <g id="Group-11" transform="translate(0.000000, 0.691400)">
                <mask id="mask-2" fill="white">
                    <use xlink:href="#path-1"></use>
                </mask>
                <g id="Clip-10"></g>
                <path d="M57.1292,2.6675 C56.5672,3.2315 56.5442,4.1225 57.0482,4.7395 C62.6312,11.5705 65.4562,19.9305 65.5212,28.3085 C65.5332,28.4055 65.5382,28.5025 65.5382,28.6045 C65.5382,28.7045 65.5332,28.8025 65.5212,28.8985 C65.4462,38.4375 61.7972,47.9505 54.5672,55.2145 C54.5672,55.2165 54.5652,55.2185 54.5632,55.2205 L50.0172,58.6265 C43.6112,63.4285 35.8692,66.2835 27.8762,66.2445 C19.2522,66.2015 11.0802,63.2495 4.4742,57.8555 C3.7612,57.2725 2.7352,57.2995 2.0862,57.9515 L0.5232,59.5225 C-0.2038,60.2535 -0.1748,61.4675 0.6182,62.1235 C9.3612,69.3735 20.5262,72.8775 32.1482,71.8125 C40.1462,71.0795 47.8372,68.0725 54.2092,63.1645 C74.2582,47.7205 76.6122,19.3325 61.2772,0.8465 C60.7062,0.1575 59.6532,0.1305 59.0232,0.7645 L57.1292,2.6675 Z" id="Fill-9" fill="#D2C129" mask="url(#mask-2)"></path>
            </g>
        </g>
    </g>
</svg>