<svg xmlns="http://www.w3.org/2000/svg" xmlns:xlink="http://www.w3.org/1999/xlink" width="72" height="63">
  <defs>
    <path id="a" d="M.0515.0921H15.296V12H.0515z"/>
    <path id="c" d="M0 .7885h14.0193V15.457H0z"/>
    <path id="e" d="M.0615.924H49.377v49.6656H.0615z"/>
  </defs>
  <g fill="none" fill-rule="evenodd">
    <g transform="translate(16 50.0759)">
      <mask id="b" fill="#fff">
        <use xlink:href="#a"/>
      </mask>
      <path fill="#79843A" d="M14.077.0921c-4.967 2.338-9.5 2.175-12.671 1.501-1.174 3.167-1.491 7.014-1.305 8.13.187 1.114.455 1.505.616 1.893 1.906.448 8.152 1.384 14.579-3.4-.143-.387-.279-.793-.407-1.219-.538-1.814-.949-4.162-.812-6.905" mask="url(#b)"/>
    </g>
    <g transform="translate(0 44.0759)">
      <mask id="d" fill="#fff">
        <use xlink:href="#c"/>
      </mask>
      <path fill="#79843A" d="M14.0193 6.0735c-1.027-.389-1.642-.726-1.735-.778-.36-.204-.619-.55-.71-.952-.026-.11-.186-.848-.276-2.023-4.09.268-7.131-.625-9.092-1.532-2.846 4.957-2.245 11.13-1.923 13.256 1.852.656 7.045 2.192 12.32.929-.104-2.757.168-5.462 1.416-8.9" mask="url(#d)"/>
    </g>
    <path fill="#79843A" d="M19.4119 31.9551c-5.994 4.363-5.403 12.961-5.097 15.144 1.942.867 8.293 3.085 15.455-1.08.072-.042.137-.091.229-.139.379-1.738.987-3.552 1.923-5.486.928-1.913 1.801-3.293 2.976-4.668-1.925-.689-3.186-1.343-3.308-1.407-.378-.2-.652-.554-.746-.97-.036-.144-.374-1.673-.544-3.894-1.551.673-3.204 1.187-4.934 1.532-2.023.405-3.602.55-5.319.496 0 0-.278.198-.635.472M24.9236 26.8359c1.971-.393 3.749-1.005 5.427-1.856.055-2.107.347-4.455 1.107-6.719-4.843-2.753-8.5-6.311-10.601-8.648-9.829 2.235-12.914 9.536-13.633 11.744.637.746 2.012 2.168 4.111 3.426 3.969 2.377 8.539 3.07 13.589 2.053M10.7156 42.7529c.212-3.4 1.294-8.058 4.973-12.37-2.786-.55-5.02-1.574-6.679-2.584a26.33 26.33 0 0 1-.591-.374c-6.208 4.998-6.923 11.266-6.983 13.282 1.122.761 4.206 2.423 9.28 2.046M51.5652 49.7363c-1.691-2.661-4.031-6.955-5.385-12.072-2.472.17-4.906-.176-7.011-.688-1.296 1.338-2.281 2.59-3.458 5.02-2.252 4.652-2.744 9.27-1.458 13.727.678 2.354 1.7 4.049 2.258 4.86.976-.061 2.934-.298 5.199-1.216 4.282-1.734 7.597-4.974 9.851-9.624.002-.001.004-.005.004-.007"/>
    <g transform="translate(22 -.9241)">
      <mask id="f" fill="#fff">
        <use xlink:href="#e"/>
      </mask>
      <path fill="#79843A" d="M38.0765 19.9856c.941 1.656 1.779 3.381 2.327 5.206 1.609 5.355 1.322 10.734-.877 16.085-1.81 4.404-4.511 7.674-6.051 9.313-1.683-2.413-5.053-7.834-6.566-14.485-.18-.79-.949-1.387-1.748-1.267-5.38.797-11.115-1.539-13.011-2.408-.359-2.059-1.16-8.206.981-13.247.317-.747-.063-1.647-.78-2.022-5.993-3.136-10.376-7.788-12.29-10.05 2.019-1.107 5.982-2.964 10.835-3.564 6.294-.782 12.026.711 17.129 4.43.876.639 1.734 1.342 2.572 2.113 1.62 1.483 3.984 1.734 5.838.558 3.688-2.34 7.212-5.389 9.277-9.237.283-.529.973-.657 1.396-.233l2.007 2.016c.393.396.339 1.062-.133 1.354-1.942 1.201-5.683 4.986-10.235 9.331-1.574 1.5-1.933 3.885-.858 5.778l.187.329z" mask="url(#f)"/>
    </g>
  </g>
</svg>