<svg xmlns="http://www.w3.org/2000/svg" xmlns:xlink="http://www.w3.org/1999/xlink" width="58" height="87">
  <defs>
    <path id="a" d="M0 .8444h57.1009v84.3441H0z"/>
  </defs>
  <g fill="none" fill-rule="evenodd">
    <path fill="#00A786" d="M25.0143 78.7017v7.454h7.071v-7.454a22.3624 22.3624 0 0 0-7.071 0"/>
    <g transform="translate(0 -.8443)">
      <mask id="b" fill="#fff">
        <use xlink:href="#a"/>
      </mask>
      <path fill="#00A786" d="M56.9216 82.9141l-14.131-27.361c-.644-1.245.558-2.644 1.879-2.185l5.152 1.788c1.319.457 2.519-.93 1.883-2.179l-12.214-23.943c-.678-1.33.719-2.761 2.056-2.106 1.381.676 2.793-.864 2.009-2.191l-13.675-23.133c-.6-1.013-2.062-1.013-2.661 0l-13.674 23.133c-.785 1.327.627 2.867 2.009 2.191 1.337-.655 2.733.776 2.055 2.106l-12.214 23.943c-.636 1.249.565 2.636 1.882 2.179l5.153-1.788c1.322-.459 2.523.94 1.88 2.185L.1786 82.9141c-.64 1.239.545 2.632 1.863 2.191l19.411-6.497c1.167-.39 2.359-.68 3.562-.874 2.343-.375 4.729-.375 7.071 0 1.203.194 2.395.484 3.562.874l19.412 6.497c1.318.441 2.503-.952 1.862-2.191" mask="url(#b)"/>
    </g>
  </g>
</svg>