<svg xmlns="http://www.w3.org/2000/svg" xmlns:xlink="http://www.w3.org/1999/xlink" width="72" height="72">
  <defs>
    <path id="a" d="M0 0h71.6389v71.692H0z"/>
  </defs>
  <g fill="none" fill-rule="evenodd">
    <mask id="b" fill="#fff">
      <use xlink:href="#a"/>
    </mask>
    <path fill="#CE82B6" d="M38.5769 37.089c.853.971 12.872 13.231 13.646 14.277.463.628-.327 1.421-.952.955-1.041-.776-13.248-12.848-14.215-13.706-.711-.631-1.762-.631-2.475 0-.966.858-13.279 13.037-14.32 13.814-.625.466-1.415-.327-.952-.955.774-1.046 12.899-13.414 13.752-14.385.63-.716.63-1.771 0-2.486-.853-.97-12.833-13.192-13.605-14.238-.464-.628.325-1.422.95-.955 1.042.777 13.209 12.809 14.175 13.666.713.633 1.764.633 2.475 0 .967-.857 13.068-12.822 14.109-13.598.625-.466 1.415.327.951.955-.773 1.046-12.686 13.2-13.539 14.17-.63.715-.63 1.77 0 2.486m13.373-2.335c11.484-4.193 19.689-15.247 19.689-28.231V3.702c0-.644-.52-1.167-1.162-1.167-.641 0-1.161-.522-1.161-1.166v-.202c0-.644-.52-1.167-1.161-1.167h-3.01c-13.05 0-24.147 8.399-28.229 20.11-.369 1.056-1.824 1.056-2.193 0C30.6399 8.399 19.5439 0 6.4929 0h-2.607c-.642 0-1.162.523-1.162 1.167v.202c0 .644-.519 1.166-1.161 1.166h-.402c-.642 0-1.161.523-1.161 1.167v2.821c0 12.984 8.204 24.038 19.688 28.231 1.03.375 1.03 1.809 0 2.185C8.2039 41.131-.0001 52.186-.0001 65.17v3.023c0 .643.519 1.166 1.161 1.166s1.161.522 1.161 1.167c0 .643.521 1.166 1.161 1.166h3.01c13.051 0 24.147-8.399 28.23-20.108.369-1.058 1.824-1.058 2.193 0 4.082 11.709 15.179 20.108 28.229 20.108h3.01c.641 0 1.161-.523 1.161-1.166 0-.645.52-1.167 1.161-1.167.642 0 1.162-.523 1.162-1.166V65.17c0-12.984-8.205-24.039-19.689-28.231-1.029-.376-1.029-1.81 0-2.185" mask="url(#b)"/>
  </g>
</svg>